<svg xmlns="http://www.w3.org/2000/svg" width="35" height="35" overflow="hidden">
    <defs>
        <clipPath id="a">
            <path d="M490 64h35v35h-35z"/>
        </clipPath>
        <clipPath id="b">
            <path d="M509 65h16v16h-16z"/>
        </clipPath>
        <clipPath id="c">
            <path d="M509 65h16v16h-16z"/>
        </clipPath>
        <clipPath id="d">
            <path d="M509 65h16v16h-16z"/>
        </clipPath>
        <clipPath id="e">
            <path d="M490 64h16v35h-16z"/>
        </clipPath>
        <clipPath id="f">
            <path d="M490 64h16v35h-16z"/>
        </clipPath>
        <clipPath id="g">
            <path d="M509 86h10v10h-10z"/>
        </clipPath>
        <clipPath id="h">
            <path d="M509 86h10v10h-10z"/>
        </clipPath>
        <clipPath id="i">
            <path d="M509 86h10v10h-10z"/>
        </clipPath>
    </defs>
    <g clip-path="url(#a)" transform="translate(-490 -64)">
        <g clip-path="url(#b)">
            <g clip-path="url(#c)">
                <g clip-path="url(#d)">
                    <path d="M524.975 67.646a.241.241 0 0 0-.25-.13l-.617.026.508-.482.011-.006.136-.16-.072-.142a.243.243 0 0 0-.278-.125l-1.665.303a2.743 2.743 0 0 0-.093-.116 2.896 2.896 0 0 0-2.284-1.07c-.227 0-.464.023-.705.07-1.69.321-2.515 1.6-3.388 2.954-1.167 1.808-2.373 3.677-5.835 3.677-.297 0-.61-.014-.931-.042a1.1 1.1 0 0 0-.092-.004c-.181 0-.307.058-.375.174-.103.174-.003.358.045.446l.007.012a8.014 8.014 0 0 0 2.85 2.982 8.527 8.527 0 0 0 3.603 1.208v2.465c0 .316.259.57.574.57h1.35a.589.589 0 0 0 .111-.012.562.562 0 0 0 .113.012h1.349a.6.6 0 0 0 .451-.204.494.494 0 0 0 .119-.402c-.06-.398-.59-.54-1.065-.54-.109 0-.311.009-.517.061l.151-2.08c.159-.031.318-.065.477-.103 2.199-.53 3.416-1.968 4.048-3.08.78-1.37 1.122-3.034.94-4.566a6.362 6.362 0 0 0-.056-.378l1.281-.999a.243.243 0 0 0 .099-.32Zm-7.833 11.47a2.197 2.197 0 0 0-.676.056l.144-1.912c.174-.004.345-.013.532-.026v1.882Zm-1.696-4.69c-.721.505-1.496.55-1.934-.209-.486.16-1.008.103-1.23-.342-.07-.14.036-.256.102-.26 2.451-.124 4.675-2.037 5.566-4.053.065-.148.266-.167.305-.024.708 2.585-.131 5.752-2.809 4.887Zm4.896-5.324a.78.78 0 1 1 0-1.56.78.78 0 0 1 0 1.56Z"/>
                </g>
            </g>
        </g>
        <g clip-path="url(#e)">
            <g clip-path="url(#f)">
                <path d="M516.697 84.437h-9.667a.427.427 0 0 0-.427.428v5.098c0 .236.19.428.427.428h9.667c.236 0 .428-.19.428-.428v-5.099a.427.427 0 0 0-.428-.427ZM512.492 93h-5.462a.428.428 0 0 0-.427.43v5.098c0 .236.19.428.427.428h5.463c.235 0 .427-.19.427-.428v-5.099a.428.428 0 0 0-.428-.428ZM520.39 74.241h-13.36a.427.427 0 0 0-.427.428v5.098c0 .236.191.428.427.428h13.36a.428.428 0 0 0 .426-.428v-5.098a.428.428 0 0 0-.427-.428ZM524.08 64.044h-17.05a.428.428 0 0 0-.427.429v5.098c0 .237.19.428.427.428h17.05a.427.427 0 0 0 .427-.428v-5.099a.428.428 0 0 0-.427-.428ZM504.155 87.779h-2.894V64.725c0-.4-.324-.725-.723-.725h-5.827a.724.724 0 0 0-.722.725v23.054h-2.894a.727.727 0 0 0-.564 1.18l6.53 9.77a.72.72 0 0 0 1.127 0l6.53-9.77a.727.727 0 0 0-.563-1.18Z"/>
            </g>
        </g>
        <g clip-path="url(#g)">
            <g clip-path="url(#h)">
                <g clip-path="url(#i)">
                    <path d="M518.984 87.654a.15.15 0 0 0-.156-.082l-.386.017.318-.302.007-.003.085-.1-.045-.089a.152.152 0 0 0-.174-.078l-1.04.19a1.982 1.982 0 0 0-.059-.073 1.81 1.81 0 0 0-1.427-.669c-.142 0-.29.015-.441.043-1.056.202-1.572 1-2.117 1.847-.729 1.13-1.483 2.298-3.647 2.298-.186 0-.381-.009-.582-.026a.659.659 0 0 0-.058-.003c-.112 0-.191.037-.234.109-.064.109-.002.224.028.279l.005.007a5.001 5.001 0 0 0 1.781 1.864 5.329 5.329 0 0 0 2.252.755v1.54c0 .198.161.357.359.357h.843a.351.351 0 0 0 .069-.007.356.356 0 0 0 .071.007h.844a.373.373 0 0 0 .281-.128.307.307 0 0 0 .075-.25c-.038-.25-.369-.338-.666-.338-.068 0-.194.005-.323.038l.094-1.3c.1-.02.199-.04.299-.064 1.374-.332 2.134-1.23 2.53-1.926a4.76 4.76 0 0 0 .587-2.853 4.312 4.312 0 0 0-.035-.236l.801-.625a.152.152 0 0 0 .061-.2Zm-4.895 7.168a1.376 1.376 0 0 0-.423.035l.09-1.194c.109-.003.216-.008.333-.017v1.176Zm-1.06-2.931c-.451.316-.936.344-1.209-.13-.303.1-.63.064-.769-.214-.044-.088.023-.16.064-.162 1.532-.078 2.922-1.273 3.479-2.534.041-.092.166-.104.191-.015.442 1.616-.083 3.595-1.756 3.055Zm3.06-3.327a.488.488 0 1 1 0-.977.488.488 0 0 1 0 .977Z" fill-opacity=".502"/>
                </g>
            </g>
        </g>
    </g>
</svg>
