<?xml version="1.0" encoding="UTF-8" standalone="no"?>
<svg
   width="35"
   height="35"
   viewBox="0 0 96.55 96.55"
   style="enable-background:new 0 0 35 35"
   xml:space="preserve"
   version="1.1"
   id="svg2"
   sodipodi:docname="sort_date.svg"
   inkscape:version="1.4-beta3 (01c8a1c, 2024-08-28, custom)"
   xmlns:inkscape="http://www.inkscape.org/namespaces/inkscape"
   xmlns:sodipodi="http://sodipodi.sourceforge.net/DTD/sodipodi-0.dtd"
   xmlns="http://www.w3.org/2000/svg"
   xmlns:svg="http://www.w3.org/2000/svg"><defs
   id="defs2" /><sodipodi:namedview
   id="namedview2"
   pagecolor="#ffffff"
   bordercolor="#000000"
   borderopacity="0.25"
   inkscape:showpageshadow="2"
   inkscape:pageopacity="0.0"
   inkscape:pagecheckerboard="0"
   inkscape:deskcolor="#d1d1d1"
   inkscape:zoom="23.057143"
   inkscape:cx="19.083024"
   inkscape:cy="17.5"
   inkscape:window-width="1920"
   inkscape:window-height="1009"
   inkscape:window-x="-8"
   inkscape:window-y="-8"
   inkscape:window-maximized="1"
   inkscape:current-layer="svg2" />
    <path
   d="M48.232 35.603c-.014.006-.03.01-.043.016-.11.045-.302.367-.221.28.09-.097.177-.197.264-.296zM39.183 65.595h-8.011V2a2 2 0 0 0-2-2h-16.13a2 2 0 0 0-2 2v63.595h-8.01c-.771 0-1.472.443-1.804 1.138a1.999 1.999 0 0 0 .244 2.117l18.076 26.954c.38.474.953.746 1.559.746s1.178-.272 1.558-.746L40.741 68.85a2 2 0 0 0 .245-2.117 2 2 0 0 0-1.803-1.138z"
   id="path1" />
    <path
   d="m 65.728196,2.1737543 c -16.77,0 -30.344,13.5720007 -30.344,30.3440007 0,16.772 13.571,30.345 30.344,30.345 16.772,0 30.344,-13.572 30.344,-30.345 0,-16.771 -13.571,-30.3440007 -30.344,-30.3440007 z m 1.495,31.6020007 -8.271,9.834 a 1.954,1.954 0 0 1 -2.99,-2.515 l 7.813,-9.289 V 9.7307549 a 1.954,1.954 0 0 1 3.907,0 V 32.518755 c 0,0.46 -0.163,0.906 -0.459,1.258 z"
   id="path2" />
</svg>
